<?xml version="1.0" encoding="utf-8"?>
<svg version="1.1" xmlns:xlink="http://www.w3.org/1999/xlink" width="17px" height="13px" xmlns="http://www.w3.org/2000/svg">
  <g transform="matrix(1 0 0 1 -20 -145 )">
    <path d="M 8.42529296875 7.49446614583333  C 8.47509765625 7.79633246527778  8.5 8.12782118055556  8.5 8.48893229166667  C 8.5 8.85004340277778  8.39762369791667 9.15049913194444  8.19287109375 9.39029947916667  C 7.98811848958333 9.63009982638889  7.736328125 9.75  7.4375 9.75  L 3.1875 9.75  C 2.888671875 9.75  2.63688151041667 9.63009982638889  2.43212890625 9.39029947916667  C 2.22737630208333 9.15049913194444  2.125 8.85004340277778  2.125 8.48893229166667  C 2.125 8.12782118055556  2.14990234375 7.79633246527778  2.19970703125 7.49446614583333  C 2.24951171875 7.19259982638889  2.33113606770833 6.90201822916667  2.444580078125 6.62272135416667  C 2.55802408854167 6.34342447916667  2.72542317708333 6.12337239583333  2.94677734375 5.96256510416667  C 3.16813151041667 5.8017578125  3.4365234375 5.72135416666667  3.751953125 5.72135416666667  C 3.78515625 5.74392361111111  3.8681640625 5.79470486111111  4.0009765625 5.87369791666667  C 4.1337890625 5.95269097222222  4.237548828125 6.01334635416667  4.312255859375 6.0556640625  C 4.386962890625 6.09798177083333  4.48518880208333 6.14735243055556  4.60693359375 6.20377604166667  C 4.72867838541667 6.26019965277778  4.84765625 6.30110677083333  4.9638671875 6.32649739583333  C 5.080078125 6.35188802083333  5.1962890625 6.36458333333333  5.3125 6.36458333333333  C 5.4287109375 6.36458333333333  5.544921875 6.35188802083333  5.6611328125 6.32649739583333  C 5.77734375 6.30110677083333  5.89632161458333 6.26019965277778  6.01806640625 6.20377604166667  C 6.13981119791667 6.14735243055556  6.238037109375 6.09798177083333  6.312744140625 6.0556640625  C 6.387451171875 6.01334635416667  6.4912109375 5.95269097222222  6.6240234375 5.87369791666667  C 6.7568359375 5.79470486111111  6.83984375 5.74392361111111  6.873046875 5.72135416666667  C 7.1884765625 5.72135416666667  7.45686848958333 5.8017578125  7.67822265625 5.96256510416667  C 7.89957682291667 6.12337239583333  8.06697591145833 6.34342447916667  8.180419921875 6.62272135416667  C 8.29386393229167 6.90201822916667  8.37548828125 7.19259982638889  8.42529296875 7.49446614583333  Z M 6.644775390625 2.7294921875  C 7.01277669270833 3.10470920138889  7.19677734375 3.55750868055555  7.19677734375 4.087890625  C 7.19677734375 4.61827256944444  7.01277669270833 5.07107204861111  6.644775390625 5.4462890625  C 6.27677408854167 5.82150607638889  5.83268229166667 6.00911458333333  5.3125 6.00911458333333  C 4.79231770833333 6.00911458333333  4.34822591145833 5.82150607638889  3.980224609375 5.4462890625  C 3.61222330729167 5.07107204861111  3.42822265625 4.61827256944444  3.42822265625 4.087890625  C 3.42822265625 3.55750868055555  3.61222330729167 3.10470920138889  3.980224609375 2.7294921875  C 4.34822591145833 2.35427517361111  4.79231770833333 2.16666666666667  5.3125 2.16666666666667  C 5.83268229166667 2.16666666666667  6.27677408854167 2.35427517361111  6.644775390625 2.7294921875  Z M 14.80029296875 7.65950520833333  C 14.85009765625 7.71028645833333  14.875 7.77517361111111  14.875 7.85416666666667  L 14.875 8.39583333333333  C 14.875 8.47482638888889  14.85009765625 8.53971354166667  14.80029296875 8.59049479166667  C 14.75048828125 8.64127604166667  14.6868489583333 8.66666666666667  14.609375 8.66666666666667  L 9.828125 8.66666666666667  C 9.75065104166667 8.66666666666667  9.68701171875 8.64127604166667  9.63720703125 8.59049479166667  C 9.58740234375 8.53971354166667  9.5625 8.47482638888889  9.5625 8.39583333333333  L 9.5625 7.85416666666667  C 9.5625 7.77517361111111  9.58740234375 7.71028645833333  9.63720703125 7.65950520833333  C 9.68701171875 7.60872395833333  9.75065104166667 7.58333333333333  9.828125 7.58333333333333  L 14.609375 7.58333333333333  C 14.6868489583333 7.58333333333333  14.75048828125 7.60872395833333  14.80029296875 7.65950520833333  Z M 14.787841796875 5.50553385416667  C 14.845947265625 5.56477864583333  14.875 5.63671875  14.875 5.72135416666667  L 14.875 6.1953125  C 14.875 6.27994791666667  14.845947265625 6.35188802083333  14.787841796875 6.4111328125  C 14.729736328125 6.47037760416667  14.6591796875 6.5  14.576171875 6.5  L 9.861328125 6.5  C 9.7783203125 6.5  9.707763671875 6.47037760416667  9.649658203125 6.4111328125  C 9.591552734375 6.35188802083333  9.5625 6.27994791666667  9.5625 6.1953125  L 9.5625 5.72135416666667  C 9.5625 5.63671875  9.591552734375 5.56477864583333  9.649658203125 5.50553385416667  C 9.707763671875 5.4462890625  9.7783203125 5.41666666666667  9.861328125 5.41666666666667  L 14.576171875 5.41666666666667  C 14.6591796875 5.41666666666667  14.729736328125 5.4462890625  14.787841796875 5.50553385416667  Z M 14.80029296875 3.326171875  C 14.85009765625 3.376953125  14.875 3.44184027777778  14.875 3.52083333333333  L 14.875 4.0625  C 14.875 4.14149305555556  14.85009765625 4.20638020833333  14.80029296875 4.25716145833333  C 14.75048828125 4.30794270833333  14.6868489583333 4.33333333333333  14.609375 4.33333333333333  L 9.828125 4.33333333333333  C 9.75065104166667 4.33333333333333  9.68701171875 4.30794270833333  9.63720703125 4.25716145833333  C 9.58740234375 4.20638020833333  9.5625 4.14149305555556  9.5625 4.0625  L 9.5625 3.52083333333333  C 9.5625 3.44184027777778  9.58740234375 3.376953125  9.63720703125 3.326171875  C 9.68701171875 3.275390625  9.75065104166667 3.25  9.828125 3.25  L 14.609375 3.25  C 14.6868489583333 3.25  14.75048828125 3.275390625  14.80029296875 3.326171875  Z M 15.858642578125 11.8362630208333  C 15.9112141927083 11.7826605902778  15.9375 11.7191840277778  16 11.6458333333333  L 16 1.35416666666667  C 15.9375 1.28081597222222  15.9112141927083 1.21733940972222  15.858642578125 1.16373697916667  C 15.8060709635417 1.11013454861111  15.7438151041667 1.08333333333333  15.671875 1  L 1.328125 1  C 1.25618489583333 1.08333333333333  1.19392903645833 1.11013454861111  1.141357421875 1.16373697916667  C 1.08878580729167 1.21733940972222  1.0625 1.28081597222222  1 1.35416666666667  L 1 11.6458333333333  C 1.0625 11.7191840277778  1.08878580729167 11.7826605902778  1.141357421875 11.8362630208333  C 1.19392903645833 11.8898654513889  1.25618489583333 11.9166666666667  1.328125 11.9166666666667  L 4.25 11.9166666666667  L 4.25 11.1041666666667  C 4.25 11.0251736111111  4.27490234375 10.9602864583333  4.32470703125 10.9095052083333  C 4.37451171875 10.8587239583333  4.43815104166667 10.8333333333333  4.515625 10.8333333333333  L 5.046875 10.8333333333333  C 5.12434895833333 10.8333333333333  5.18798828125 10.8587239583333  5.23779296875 10.9095052083333  C 5.28759765625 10.9602864583333  5.3125 11.0251736111111  5.3125 11.1041666666667  L 5.3125 11.9166666666667  L 11.6875 11.9166666666667  L 11.6875 11.1041666666667  C 11.6875 11.0251736111111  11.71240234375 10.9602864583333  11.76220703125 10.9095052083333  C 11.81201171875 10.8587239583333  11.8756510416667 10.8333333333333  11.953125 10.8333333333333  L 12.484375 10.8333333333333  C 12.5618489583333 10.8333333333333  12.62548828125 10.8587239583333  12.67529296875 10.9095052083333  C 12.72509765625 10.9602864583333  12.75 11.0251736111111  12.75 11.1041666666667  L 12.75 11.9166666666667  L 15.671875 11.9166666666667  C 15.7438151041667 11.9166666666667  15.8060709635417 11.8898654513889  15.858642578125 11.8362630208333  Z M 16.60986328125 0.397786458333334  C 16.8699544270833 0.662977430555555  17 0.981770833333334  17 1.35416666666667  L 17 11.6458333333333  C 17 12.0182291666667  16.8699544270833 12.3370225694444  16.60986328125 12.6022135416667  C 16.3497721354167 12.8674045138889  16.037109375 13  15.671875 13  L 1.328125 13  C 0.962890625 13  0.650227864583333 12.8674045138889  0.39013671875 12.6022135416667  C 0.130045572916667 12.3370225694444  0 12.0182291666667  0 11.6458333333333  L 0 1.35416666666667  C 0 0.981770833333334  0.130045572916667 0.662977430555555  0.39013671875 0.397786458333334  C 0.650227864583333 0.13259548611111  0.962890625 0  1.328125 0  L 15.671875 0  C 16.037109375 0  16.3497721354167 0.13259548611111  16.60986328125 0.397786458333334  Z " fill-rule="nonzero" fill="#555555" stroke="none" transform="matrix(1 0 0 1 20 145 )" />
  </g>
</svg>