<?xml version="1.0" encoding="utf-8"?>
<svg version="1.1" xmlns:xlink="http://www.w3.org/1999/xlink" width="20px" height="15px" xmlns="http://www.w3.org/2000/svg">
  <g transform="matrix(1 0 0 1 -20 -23 )">
    <path d="M 3.8671875 10.5095880681818  C 4.14620535714286 10.2432528409091  4.28571428571429 9.921875  4.28571428571429 9.54545454545455  C 4.28571428571429 9.16903409090909  4.14620535714286 8.84765625  3.8671875 8.58132102272727  C 3.58816964285714 8.31498579545455  3.2514880952381 8.18181818181818  2.85714285714286 8.18181818181818  C 2.46279761904762 8.18181818181818  2.12611607142857 8.31498579545455  1.84709821428571 8.58132102272727  C 1.56808035714286 8.84765625  1.42857142857143 9.16903409090909  1.42857142857143 9.54545454545455  C 1.42857142857143 9.921875  1.56808035714286 10.2432528409091  1.84709821428571 10.5095880681818  C 2.12611607142857 10.7759232954545  2.46279761904762 10.9090909090909  2.85714285714286 10.9090909090909  C 3.2514880952381 10.9090909090909  3.58816964285714 10.7759232954545  3.8671875 10.5095880681818  Z M 6.01004464285714 5.73686079545455  C 6.2890625 5.47052556818182  6.42857142857143 5.14914772727273  6.42857142857143 4.77272727272727  C 6.42857142857143 4.39630681818182  6.2890625 4.07492897727273  6.01004464285714 3.80859375  C 5.73102678571429 3.54225852272727  5.39434523809524 3.40909090909091  5 3.40909090909091  C 4.60565476190476 3.40909090909091  4.26897321428571 3.54225852272727  3.98995535714286 3.80859375  C 3.7109375 4.07492897727273  3.57142857142857 4.39630681818182  3.57142857142857 4.77272727272727  C 3.57142857142857 5.14914772727273  3.7109375 5.47052556818182  3.98995535714286 5.73686079545455  C 4.26897321428571 6.00319602272727  4.60565476190476 6.13636363636364  5 6.13636363636364  C 5.39434523809524 6.13636363636364  5.73102678571429 6.00319602272727  6.01004464285714 5.73686079545455  Z M 12.0089285714286 10.8664772727273  C 11.8452380952381 10.4616477272727  11.577380952381 10.1384943181818  11.2053571428571 9.89701704545455  L 12.3325892857143 5.82741477272727  C 12.3772321428571 5.64275568181818  12.3493303571429 5.47052556818182  12.2488839285714 5.31072443181818  C 12.1484375 5.15092329545454  12.0052083333333 5.04616477272727  11.8191964285714 4.99644886363636  C 11.6331845238095 4.94673295454545  11.4546130952381 4.96981534090909  11.2834821428571 5.06569602272727  C 11.1123511904762 5.16157670454546  11.000744047619 5.30184659090909  10.9486607142857 5.48650568181818  L 9.82142857142857 9.55610795454546  C 9.375 9.59161931818182  8.97693452380952 9.74609375  8.62723214285714 10.01953125  C 8.27752976190476 10.29296875  8.04315476190476 10.6427556818182  7.92410714285714 11.0688920454545  C 7.77529761904762 11.6157670454545  7.84970238095238 12.1342329545455  8.14732142857143 12.6242897727273  C 8.44494047619048 13.1143465909091  8.88020833333333 13.4303977272727  9.453125 13.5724431818182  C 10.0260416666667 13.7144886363636  10.5691964285714 13.6434659090909  11.0825892857143 13.359375  C 11.5959821428571 13.0752840909091  11.9270833333333 12.6598011363636  12.0758928571429 12.1129261363636  C 12.1949404761905 11.6867897727273  12.172619047619 11.2713068181818  12.0089285714286 10.8664772727273  Z M 18.1529017857143 10.5095880681818  C 18.4319196428571 10.2432528409091  18.5714285714286 9.921875  18.5714285714286 9.54545454545455  C 18.5714285714286 9.16903409090909  18.4319196428571 8.84765625  18.1529017857143 8.58132102272727  C 17.8738839285714 8.31498579545455  17.5372023809524 8.18181818181818  17.1428571428571 8.18181818181818  C 16.7485119047619 8.18181818181818  16.4118303571429 8.31498579545455  16.1328125 8.58132102272727  C 15.8537946428571 8.84765625  15.7142857142857 9.16903409090909  15.7142857142857 9.54545454545455  C 15.7142857142857 9.921875  15.8537946428571 10.2432528409091  16.1328125 10.5095880681818  C 16.4118303571429 10.7759232954545  16.7485119047619 10.9090909090909  17.1428571428571 10.9090909090909  C 17.5372023809524 10.9090909090909  17.8738839285714 10.7759232954545  18.1529017857143 10.5095880681818  Z M 11.0100446428571 3.69140625  C 11.2890625 3.42507102272727  11.4285714285714 3.10369318181818  11.4285714285714 2.72727272727273  C 11.4285714285714 2.35085227272727  11.2890625 2.02947443181818  11.0100446428571 1.76313920454545  C 10.7310267857143 1.49680397727273  10.3943452380952 1.36363636363636  10 1.36363636363636  C 9.60565476190476 1.36363636363636  9.26897321428572 1.49680397727273  8.98995535714286 1.76313920454545  C 8.7109375 2.02947443181818  8.57142857142857 2.35085227272727  8.57142857142857 2.72727272727273  C 8.57142857142857 3.10369318181818  8.7109375 3.42507102272727  8.98995535714286 3.69140625  C 9.26897321428572 3.95774147727273  9.60565476190476 4.09090909090909  10 4.09090909090909  C 10.3943452380952 4.09090909090909  10.7310267857143 3.95774147727273  11.0100446428571 3.69140625  Z M 16.0100446428571 5.73686079545455  C 16.2890625 5.47052556818182  16.4285714285714 5.14914772727273  16.4285714285714 4.77272727272727  C 16.4285714285714 4.39630681818182  16.2890625 4.07492897727273  16.0100446428571 3.80859375  C 15.7310267857143 3.54225852272727  15.3943452380952 3.40909090909091  15 3.40909090909091  C 14.6056547619048 3.40909090909091  14.2689732142857 3.54225852272727  13.9899553571429 3.80859375  C 13.7109375 4.07492897727273  13.5714285714286 4.39630681818182  13.5714285714286 4.77272727272727  C 13.5714285714286 5.14914772727273  13.7109375 5.47052556818182  13.9899553571429 5.73686079545455  C 14.2689732142857 6.00319602272727  14.6056547619048 6.13636363636364  15 6.13636363636364  C 15.3943452380952 6.13636363636364  15.7310267857143 6.00319602272727  16.0100446428571 5.73686079545455  Z M 19.2075892857143 5.83806818181818  C 19.7358630952381 7.01704545454545  20 8.25284090909091  20 9.54545454545455  C 20 11.3991477272727  19.4754464285714 13.1143465909091  18.4263392857143 14.6910511363636  C 18.2849702380952 14.8970170454545  18.0840773809524 15  17.8236607142857 15  L 2.17633928571429 15  C 1.91592261904762 15  1.71502976190476 14.8970170454545  1.57366071428571 14.6910511363636  C 0.524553571428571 13.1214488636364  0 11.40625  0 9.54545454545455  C 0 8.25284090909091  0.264136904761905 7.01704545454545  0.792410714285714 5.83806818181818  C 1.32068452380952 4.65909090909091  2.03125 3.64346590909091  2.92410714285714 2.79119318181818  C 3.81696428571429 1.93892045454545  4.88095238095238 1.26065340909091  6.11607142857143 0.756392045454545  C 7.35119047619048 0.252130681818181  8.64583333333333 0  10 0  C 11.3541666666667 0  12.6488095238095 0.252130681818181  13.8839285714286 0.756392045454545  C 15.1190476190476 1.26065340909091  16.1830357142857 1.93892045454545  17.0758928571429 2.79119318181818  C 17.96875 3.64346590909091  18.6793154761905 4.65909090909091  19.2075892857143 5.83806818181818  Z " fill-rule="nonzero" fill="#666666" stroke="none" transform="matrix(1 0 0 1 20 23 )" />
  </g>
</svg>