<?xml version="1.0" encoding="utf-8"?>
<svg version="1.1" xmlns:xlink="http://www.w3.org/1999/xlink" width="17px" height="15px" xmlns="http://www.w3.org/2000/svg">
  <g transform="matrix(1 0 0 1 -20 -183 )">
    <path d="M 14.4542288557214 13.7109375  L 15.1562189054726 13.0161830357143  C 15.2633499170813 12.91015625  15.3902155887231 12.8571428571429  15.536815920398 12.8571428571429  C 15.683416252073 12.8571428571429  15.8102819237148 12.91015625  15.9174129353234 13.0161830357143  L 17 14.0876116071429  L 16.2388059701493 14.8409598214286  L 15.536815920398 14.1462053571429  L 14.8348258706468 14.8409598214286  C 14.7333333333333 14.9469866071429  14.6064676616915 15  14.4542288557214 15  C 14.3019900497512 15  14.1751243781095 14.9469866071429  14.073631840796 14.8409598214286  L 13.3716417910448 14.1462053571429  L 12.6696517412935 14.8409598214286  C 12.5625207296849 14.9469866071429  12.4356550580431 15  12.2890547263682 15  C 12.1424543946932 15  12.0155887230514 14.9469866071429  11.9084577114428 14.8409598214286  L 11.2064676616915 14.1462053571429  L 10.5044776119403 14.8409598214286  C 10.3973466003317 14.9469866071429  10.2704809286899 15  10.1238805970149 15  C 9.97728026533997 15  9.85041459369818 14.9469866071429  9.74328358208955 14.8409598214286  L 9.04129353233831 14.1462053571429  L 8.33930348258706 14.8409598214286  C 8.23217247097844 14.9469866071429  8.10530679933665 15  7.95870646766169 15  C 7.81210613598673 15  7.68524046434494 14.9469866071429  7.57810945273632 14.8409598214286  L 6.87611940298507 14.1462053571429  L 6.17412935323383 14.8409598214286  C 6.06699834162521 14.9469866071429  5.94013266998342 15  5.79353233830846 15  C 5.6469320066335 15  5.52006633499171 14.9469866071429  5.41293532338308 14.8409598214286  L 4.71094527363184 14.1462053571429  L 4.0089552238806 14.8409598214286  C 3.90182421227197 14.9469866071429  3.77495854063018 15  3.62835820895522 15  C 3.48175787728027 15  3.35489220563847 14.9469866071429  3.24776119402985 14.8409598214286  L 2.54577114427861 14.1462053571429  L 1.84378109452736 14.8409598214286  C 1.73665008291874 14.9469866071429  1.60978441127695 15  1.46318407960199 15  C 1.31658374792703 15  1.18971807628524 14.9469866071429  1.08258706467662 14.8409598214286  L 0 13.76953125  L 0.761194029850746 13.0161830357143  L 1.46318407960199 13.7109375  L 2.16517412935323 13.0161830357143  C 2.27230514096186 12.91015625  2.39917081260365 12.8571428571429  2.54577114427861 12.8571428571429  C 2.69237147595357 12.8571428571429  2.81923714759536 12.91015625  2.92636815920398 13.0161830357143  L 3.62835820895522 13.7109375  L 4.33034825870647 13.0161830357143  C 4.43747927031509 12.91015625  4.56434494195688 12.8571428571429  4.71094527363184 12.8571428571429  C 4.8575456053068 12.8571428571429  4.98441127694859 12.91015625  5.09154228855721 13.0161830357143  L 5.79353233830846 13.7109375  L 6.4955223880597 13.0161830357143  C 6.60265339966833 12.91015625  6.72951907131012 12.8571428571429  6.87611940298507 12.8571428571429  C 7.02271973466003 12.8571428571429  7.14958540630183 12.91015625  7.25671641791045 13.0161830357143  L 7.95870646766169 13.7109375  L 8.66069651741294 13.0161830357143  C 8.76782752902156 12.91015625  8.89469320066335 12.8571428571429  9.04129353233831 12.8571428571429  C 9.18789386401327 12.8571428571429  9.31475953565506 12.91015625  9.42189054726368 13.0161830357143  L 10.1238805970149 13.7109375  L 10.8258706467662 13.0161830357143  C 10.9330016583748 12.91015625  11.0598673300166 12.8571428571429  11.2064676616915 12.8571428571429  C 11.3530679933665 12.8571428571429  11.4799336650083 12.91015625  11.5870646766169 13.0161830357143  L 12.2890547263682 13.7109375  L 12.9910447761194 13.0161830357143  C 13.098175787728 12.91015625  13.2250414593698 12.8571428571429  13.3716417910448 12.8571428571429  C 13.5182421227197 12.8571428571429  13.6451077943615 12.91015625  13.7522388059701 13.0161830357143  L 14.4542288557214 13.7109375  Z M 2.54577114427861 12.0033482142857  L 1.84378109452736 12.6981026785714  C 1.73665008291874 12.8041294642857  1.60978441127695 12.8571428571429  1.46318407960199 12.8571428571429  C 1.31658374792703 12.8571428571429  1.18971807628524 12.8041294642857  1.08258706467662 12.6981026785714  L 0 11.6266741071429  L 0.761194029850746 10.8733258928571  L 1.46318407960199 11.5597098214286  L 2.16517412935323 10.8733258928571  C 2.27230514096186 10.7672991071429  2.39917081260365 10.7142857142857  2.54577114427861 10.7142857142857  C 2.69237147595357 10.7142857142857  2.81923714759536 10.7672991071429  2.92636815920398 10.8733258928571  L 3.62835820895522 11.5597098214286  L 4.16965174129353 11.0239955357143  L 4.16965174129353 8.57142857142857  L 2.39353233830846 5.94308035714286  C 2.29767827529022 5.79799107142857  2.27794361525705 5.64034598214286  2.33432835820896 5.47014508928571  C 2.39071310116086 5.29994419642857  2.50348258706468 5.18694196428571  2.6726368159204 5.13113839285714  L 4.16965174129353 4.64564732142857  L 4.16965174129353 2.14285714285714  L 5.25223880597015 2.14285714285714  L 5.25223880597015 1.07142857142857  L 7.41741293532338 1.07142857142857  L 7.41741293532338 0  L 9.58258706467662 0  L 9.58258706467662 1.07142857142857  L 11.7477611940299 1.07142857142857  L 11.7477611940299 2.14285714285714  L 12.8303482587065 2.14285714285714  L 12.8303482587065 4.64564732142857  L 14.3273631840796 5.13113839285714  C 14.4965174129353 5.18694196428571  14.6092868988391 5.29994419642857  14.665671641791 5.47014508928571  C 14.722056384743 5.64034598214286  14.7023217247098 5.79799107142857  14.6064676616915 5.94308035714286  L 12.8303482587065 8.57142857142857  L 12.8303482587065 11.0239955357143  L 12.9910447761194 10.8733258928571  C 13.098175787728 10.7672991071429  13.2250414593698 10.7142857142857  13.3716417910448 10.7142857142857  C 13.5182421227197 10.7142857142857  13.6451077943615 10.7672991071429  13.7522388059701 10.8733258928571  L 14.4542288557214 11.5597098214286  L 15.1562189054726 10.8733258928571  C 15.2633499170813 10.7672991071429  15.3902155887231 10.7142857142857  15.536815920398 10.7142857142857  C 15.683416252073 10.7142857142857  15.8102819237148 10.7672991071429  15.9174129353234 10.8733258928571  L 17 11.9447544642857  L 16.2388059701493 12.6981026785714  L 15.536815920398 12.0033482142857  L 14.8348258706468 12.6981026785714  C 14.7333333333333 12.8041294642857  14.6064676616915 12.8571428571429  14.4542288557214 12.8571428571429  C 14.3019900497512 12.8571428571429  14.1751243781095 12.8041294642857  14.073631840796 12.6981026785714  L 13.3716417910448 12.0033482142857  L 12.6696517412935 12.6981026785714  C 12.5625207296849 12.8041294642857  12.4356550580431 12.8571428571429  12.2890547263682 12.8571428571429  C 12.1424543946932 12.8571428571429  12.0155887230514 12.8041294642857  11.9084577114428 12.6981026785714  L 11.2064676616915 12.0033482142857  L 10.5044776119403 12.6981026785714  C 10.3973466003317 12.8041294642857  10.2704809286899 12.8571428571429  10.1238805970149 12.8571428571429  C 9.97728026533997 12.8571428571429  9.85041459369818 12.8041294642857  9.74328358208955 12.6981026785714  L 9.04129353233831 12.0033482142857  L 8.33930348258706 12.6981026785714  C 8.23217247097844 12.8041294642857  8.10530679933665 12.8571428571429  7.95870646766169 12.8571428571429  C 7.81210613598673 12.8571428571429  7.68524046434494 12.8041294642857  7.57810945273632 12.6981026785714  L 6.87611940298507 12.0033482142857  L 6.17412935323383 12.6981026785714  C 6.06699834162521 12.8041294642857  5.94013266998342 12.8571428571429  5.79353233830846 12.8571428571429  C 5.6469320066335 12.8571428571429  5.52006633499171 12.8041294642857  5.41293532338308 12.6981026785714  L 4.71094527363184 12.0033482142857  L 4.0089552238806 12.6981026785714  C 3.90182421227197 12.8041294642857  3.77495854063018 12.8571428571429  3.62835820895522 12.8571428571429  C 3.48175787728027 12.8571428571429  3.35489220563847 12.8041294642857  3.24776119402985 12.6981026785714  L 2.54577114427861 12.0033482142857  Z M 6.33482587064677 3.21428571428571  L 5.25223880597015 3.21428571428571  L 5.25223880597015 4.28571428571429  L 8.5 3.21428571428571  L 11.7477611940299 4.28571428571429  L 11.7477611940299 3.21428571428571  L 10.6651741293532 3.21428571428571  L 10.6651741293532 2.14285714285714  L 6.33482587064677 2.14285714285714  L 6.33482587064677 3.21428571428571  Z " fill-rule="nonzero" fill="#555555" stroke="none" transform="matrix(1 0 0 1 20 183 )" />
  </g>
</svg>