<?xml version="1.0" encoding="utf-8"?>
<svg version="1.1" xmlns:xlink="http://www.w3.org/1999/xlink" width="14px" height="14px" xmlns="http://www.w3.org/2000/svg">
  <g transform="matrix(1 0 0 1 -22 -304 )">
    <path d="M 3.20833333333333 9.40625  L 3.68229166666667 8.93229166666667  L 5.06770833333333 10.3177083333333  L 4.59375 10.7916666666667  L 4.08333333333333 10.7916666666667  L 4.08333333333333 9.91666666666667  L 3.20833333333333 9.91666666666667  L 3.20833333333333 9.40625  Z M 7.18229166666667 5.40494791666667  C 7.28559027777778 5.30164930555555  7.37673611111111 5.29253472222222  7.45572916666667 5.37760416666667  C 7.54079861111111 5.45659722222222  7.53168402777778 5.54774305555555  7.42838541666667 5.65104166666667  L 4.77604166666667 8.30338541666667  C 4.67274305555556 8.40668402777778  4.58159722222222 8.41579861111111  4.50260416666667 8.33072916666667  C 4.41753472222222 8.25173611111111  4.42664930555556 8.16059027777778  4.52994791666667 8.05729166666667  L 7.18229166666667 5.40494791666667  Z M 2.33333333333333 11.6666666666667  L 4.95833333333333 11.6666666666667  L 9.91666666666667 6.70833333333333  L 7.29166666666667 4.08333333333333  L 2.33333333333333 9.04166666666667  L 2.33333333333333 11.6666666666667  Z M 7.875 3.5  L 10.5 6.125  L 11.3385416666667 5.28645833333333  C 11.5086805555556 5.11631944444444  11.59375 4.90972222222222  11.59375 4.66666666666667  C 11.59375 4.42361111111111  11.5086805555556 4.21701388888889  11.3385416666667 4.046875  L 9.953125 2.66145833333333  C 9.78298611111111 2.49131944444444  9.57638888888889 2.40625  9.33333333333333 2.40625  C 9.09027777777778 2.40625  8.88368055555556 2.49131944444444  8.71354166666667 2.66145833333333  L 7.875 3.5  Z M 13.2298177083333 0.770182291666667  C 13.7432725694444 1.28363715277778  14 1.90190972222222  14 2.625  L 14 11.375  C 14 12.0980902777778  13.7432725694444 12.7163628472222  13.2298177083333 13.2298177083333  C 12.7163628472222 13.7432725694444  12.0980902777778 14  11.375 14  L 2.625 14  C 1.90190972222222 14  1.28363715277778 13.7432725694444  0.770182291666667 13.2298177083333  C 0.256727430555556 12.7163628472222  0 12.0980902777778  0 11.375  L 0 2.625  C 0 1.90190972222222  0.256727430555556 1.28363715277778  0.770182291666667 0.770182291666667  C 1.28363715277778 0.256727430555555  1.90190972222222 0  2.625 0  L 11.375 0  C 12.0980902777778 0  12.7163628472222 0.256727430555555  13.2298177083333 0.770182291666667  Z " fill-rule="nonzero" fill="#555555" stroke="none" transform="matrix(1 0 0 1 22 304 )" />
  </g>
</svg>