<?xml version="1.0" encoding="utf-8"?>
<svg version="1.1" xmlns:xlink="http://www.w3.org/1999/xlink" width="21px" height="14px" xmlns="http://www.w3.org/2000/svg">
  <g transform="matrix(1 0 0 1 -18 -264 )">
    <path d="M 10.9375 8.10286458333333  L 16.1692708333333 6.453125  L 16.3333333333333 9.33333333333333  C 16.3576388888889 9.75260416666667  16.1085069444444 10.1414930555556  15.5859375 10.5  C 15.0633680555556 10.8585069444444  14.3493923611111 11.142578125  13.4440104166667 11.3522135416667  C 12.5386284722222 11.5618489583333  11.5572916666667 11.6666666666667  10.5 11.6666666666667  C 9.44270833333333 11.6666666666667  8.46137152777778 11.5618489583333  7.55598958333333 11.3522135416667  C 6.65060763888889 11.142578125  5.93663194444445 10.8585069444444  5.4140625 10.5  C 4.89149305555556 10.1414930555556  4.64236111111111 9.75260416666667  4.66666666666667 9.33333333333333  L 4.83072916666667 6.453125  L 10.0625 8.10286458333333  C 10.1961805555556 8.14539930555556  10.3420138888889 8.16666666666667  10.5 8.16666666666667  C 10.6579861111111 8.16666666666667  10.8038194444444 8.14539930555556  10.9375 8.10286458333333  Z M 20.7994791666667 3.21744791666667  C 20.9331597222222 3.26605902777778  21 3.36024305555555  21 3.5  C 21 3.63975694444444  20.9331597222222 3.73394097222222  20.7994791666667 3.78255208333333  L 10.5911458333333 6.99088541666667  C 10.5668402777778 6.99696180555555  10.5364583333333 7  10.5 7  C 10.4635416666667 7  10.4331597222222 6.99696180555555  10.4088541666667 6.99088541666667  L 4.46614583333333 5.11328125  C 4.20486111111111 5.31987847222222  3.98914930555556 5.65863715277778  3.81901041666667 6.12955729166667  C 3.64887152777778 6.60047743055555  3.54557291666667 7.14279513888889  3.50911458333333 7.75651041666667  C 3.89192708333333 7.97526041666667  4.08333333333333 8.30642361111111  4.08333333333333 8.75  C 4.08333333333333 9.16927083333333  3.90711805555556 9.49435763888889  3.5546875 9.72526041666667  L 4.08333333333333 13.671875  C 4.09548611111111 13.7569444444444  4.07118055555556 13.8328993055556  4.01041666666667 13.8997395833333  C 3.95572916666667 13.9665798611111  3.8828125 14  3.79166666666667 14  L 2.04166666666667 14  C 1.95052083333333 14  1.87760416666667 13.9665798611111  1.82291666666667 13.8997395833333  C 1.76215277777778 13.8328993055556  1.73784722222222 13.7569444444444  1.75 13.671875  L 2.27864583333333 9.72526041666667  C 1.92621527777778 9.49435763888889  1.75 9.16927083333333  1.75 8.75  C 1.75 8.30642361111111  1.94748263888889 7.96918402777778  2.34244791666667 7.73828125  C 2.40928819444444 6.48046875  2.70703125 5.47786458333333  3.23567708333333 4.73046875  L 0.200520833333333 3.78255208333333  C 0.0668402777777778 3.73394097222222  0 3.63975694444444  0 3.5  C 0 3.36024305555555  0.0668402777777778 3.26605902777778  0.200520833333333 3.21744791666667  L 10.4088541666667 0.00911458333333282  C 10.4331597222222 0.00303819444444375  10.4635416666667 0  10.5 0  C 10.5364583333333 0  10.5668402777778 0.00303819444444375  10.5911458333333 0.00911458333333282  L 20.7994791666667 3.21744791666667  Z " fill-rule="nonzero" fill="#555555" stroke="none" transform="matrix(1 0 0 1 18 264 )" />
  </g>
</svg>