<?xml version="1.0" encoding="utf-8"?>
<svg version="1.1" xmlns:xlink="http://www.w3.org/1999/xlink" width="16px" height="15px" xmlns="http://www.w3.org/2000/svg">
  <g transform="matrix(1 0 0 1 -21 -542 )">
    <path d="M 6.84166666666667 9.03747870528109  C 7.25833333333333 8.61158432708688  7.46666666666667 8.09767177739921  7.46666666666667 7.49574105621806  C 7.46666666666667 6.89381033503691  7.25833333333333 6.37989778534923  6.84166666666667 5.95400340715503  C 6.425 5.52810902896082  5.92222222222222 5.31516183986371  5.33333333333333 5.31516183986371  C 4.74444444444444 5.31516183986371  4.24166666666667 5.52810902896082  3.825 5.95400340715503  C 3.40833333333333 6.37989778534923  3.2 6.89381033503691  3.2 7.49574105621806  C 3.2 8.09767177739921  3.40833333333333 8.61158432708688  3.825 9.03747870528109  C 4.24166666666667 9.4633730834753  4.74444444444444 9.6763202725724  5.33333333333333 9.6763202725724  C 5.92222222222222 9.6763202725724  6.425 9.4633730834753  6.84166666666667 9.03747870528109  Z M 13.5541666666667 12.6277683134583  C 13.7625 12.4148211243612  13.8666666666667 12.1578648495173  13.8666666666667 11.8568994889267  C 13.8666666666667 11.5616127200454  13.7611111111111 11.3060760931289  13.55 11.0902896081772  C 13.3388888888889 10.8745031232254  13.0888888888889 10.7666098807496  12.8 10.7666098807496  C 12.5111111111111 10.7666098807496  12.2611111111111 10.8745031232254  12.05 11.0902896081772  C 11.8388888888889 11.3060760931289  11.7333333333333 11.5616127200454  11.7333333333333 11.8568994889267  C 11.7333333333333 12.1578648495173  11.8375 12.4148211243612  12.0458333333333 12.6277683134583  C 12.2541666666667 12.8407155025554  12.5055555555556 12.9471890971039  12.8 12.9471890971039  C 13.0944444444444 12.9471890971039  13.3458333333333 12.8407155025554  13.5541666666667 12.6277683134583  Z M 13.5541666666667 3.90545144804089  C 13.7625 3.69250425894378  13.8666666666667 3.43554798409994  13.8666666666667 3.13458262350937  C 13.8666666666667 2.83929585462805  13.7611111111111 2.58375922771153  13.55 2.3679727427598  C 13.3388888888889 2.15218625780806  13.0888888888889 2.0442930153322  12.8 2.0442930153322  C 12.5111111111111 2.0442930153322  12.2611111111111 2.15218625780806  12.05 2.3679727427598  C 11.8388888888889 2.58375922771153  11.7333333333333 2.83929585462805  11.7333333333333 3.13458262350937  C 11.7333333333333 3.43554798409994  11.8375 3.69250425894378  12.0458333333333 3.90545144804089  C 12.2541666666667 4.11839863713799  12.5055555555556 4.22487223168654  12.8 4.22487223168654  C 13.0944444444444 4.22487223168654  13.3458333333333 4.11839863713799  13.5541666666667 3.90545144804089  Z M 10.6083333333333 6.55451448040886  C 10.6472222222222 6.60278250993754  10.6666666666667 6.65814877910278  10.6666666666667 6.7206132879046  L 10.6666666666667 8.29642248722317  C 10.6666666666667 8.35320840431573  10.6472222222222 8.40857467348098  10.6083333333333 8.46252129471891  C 10.5694444444444 8.51646791595684  10.525 8.54628052243044  10.475 8.55195911413969  L 9.18333333333333 8.75638841567291  C 9.12222222222222 8.95513912549688  9.03333333333333 9.17092561044861  8.91666666666667 9.40374787052811  C 9.10555555555556 9.6763202725724  9.35555555555556 10.0028392958546  9.66666666666667 10.3833049403748  C 9.70555555555556 10.4457694491766  9.725 10.5025553662692  9.725 10.5536626916525  C 9.725 10.6218057921635  9.70555555555556 10.6757524134015  9.66666666666667 10.7155025553663  C 9.53888888888889 10.885860306644  9.30972222222222 11.1399772856332  8.97916666666667 11.4778534923339  C 8.64861111111111 11.8157296990346  8.43055555555556 11.984667802385  8.325 11.984667802385  C 8.26388888888889 11.984667802385  8.20555555555556 11.9647927314026  8.15 11.9250425894378  L 7.19166666666667 11.1584327086882  C 6.98611111111111 11.2663259511641  6.77222222222222 11.3543441226576  6.55 11.4224872231687  C 6.48888888888889 12.0357751277683  6.425 12.4758659852357  6.35833333333333 12.7427597955707  C 6.31944444444444 12.8790459965928  6.23611111111111 12.9471890971039  6.10833333333333 12.9471890971039  L 4.55833333333333 12.9471890971039  C 4.49722222222222 12.9471890971039  4.44166666666667 12.9258943781942  4.39166666666667 12.8833049403748  C 4.34166666666667 12.8407155025554  4.31388888888889 12.7910278250994  4.30833333333333 12.7342419080068  L 4.11666666666667 11.4310051107325  C 3.92777777777778 11.37421919364  3.71944444444444 11.2862010221465  3.49166666666667 11.1669505962521  L 2.50833333333333 11.9250425894378  C 2.46944444444444 11.9647927314026  2.41388888888889 11.984667802385  2.34166666666667 11.984667802385  C 2.28055555555556 11.984667802385  2.22222222222222 11.961953435548  2.16666666666667 11.9165247018739  C 1.36666666666667 11.1612720045429  0.966666666666667 10.7069846678024  0.966666666666667 10.5536626916525  C 0.966666666666667 10.5025553662692  0.986111111111111 10.4486087450312  1.025 10.3918228279387  C 1.08055555555556 10.3123225440091  1.19444444444444 10.1618398637138  1.36666666666667 9.94037478705281  C 1.53888888888889 9.71890971039182  1.66944444444444 9.54571266325951  1.75833333333333 9.42078364565588  C 1.63055555555556 9.17092561044861  1.53333333333333 8.93810335036911  1.46666666666667 8.72231686541738  L 0.2 8.51788756388416  C 0.144444444444444 8.5122089721749  0.0972222222222222 8.48523566155593  0.0583333333333333 8.43696763202726  C 0.0194444444444444 8.38869960249858  0 8.33333333333333  0 8.27086882453152  L 0 6.69505962521295  C 0 6.63827370812039  0.0194444444444444 6.58290743895514  0.0583333333333333 6.52896081771721  C 0.0972222222222222 6.47501419647927  0.141666666666667 6.44520159000568  0.191666666666667 6.43952299829642  L 1.48333333333333 6.2350936967632  C 1.54444444444444 6.03634298693924  1.63333333333333 5.82055650198751  1.75 5.58773424190801  C 1.56111111111111 5.31516183986371  1.31111111111111 4.98864281658149  1 4.60817717206133  C 0.961111111111111 4.54571266325951  0.941666666666667 4.48892674616695  0.941666666666667 4.43781942078365  C 0.941666666666667 4.36967632027257  0.961111111111111 4.31289040318001  1 4.26746166950596  C 1.12222222222222 4.09710391822828  1.35 3.84440658716638  1.68333333333333 3.50936967632027  C 2.01666666666667 3.17433276547416  2.23611111111111 3.00681431005111  2.34166666666667 3.00681431005111  C 2.40277777777778 3.00681431005111  2.46111111111111 3.0266893810335  2.51666666666667 3.0664395229983  L 3.475 3.83304940374787  C 3.66388888888889 3.73083475298126  3.87777777777778 3.63997728563316  4.11666666666667 3.56047700170358  C 4.17777777777778 2.94718909710392  4.24166666666667 2.5099375354912  4.30833333333333 2.24872231686542  C 4.34722222222222 2.11243611584327  4.43055555555556 2.0442930153322  4.55833333333333 2.0442930153322  L 6.10833333333333 2.0442930153322  C 6.16944444444445 2.0442930153322  6.225 2.06558773424191  6.275 2.10817717206133  C 6.325 2.15076660988075  6.35277777777778 2.20045428733674  6.35833333333333 2.2572402044293  L 6.55 3.56047700170358  C 6.73888888888889 3.61726291879614  6.94722222222222 3.70528109028961  7.175 3.82453151618399  L 8.15833333333333 3.0664395229983  C 8.20277777777778 3.0266893810335  8.25833333333333 3.00681431005111  8.325 3.00681431005111  C 8.38611111111111 3.00681431005111  8.44444444444444 3.02952867688813  8.5 3.07495741056218  C 9.3 3.83021010789324  9.7 4.28449744463373  9.7 4.43781942078365  C 9.7 4.48324815445769  9.68055555555556 4.53719477569563  9.64166666666667 4.59965928449745  C 9.575 4.69051675184554  9.45833333333333 4.84383872799546  9.29166666666667 5.05962521294719  C 9.125 5.27541169789892  9 5.4457694491766  8.91666666666667 5.57069846678024  C 9.04444444444445 5.84327086882453  9.13888888888889 6.07609312890403  9.2 6.26916524701874  L 10.4666666666667 6.46507666098807  C 10.5222222222222 6.47643384440659  10.5694444444444 6.50624645088018  10.6083333333333 6.55451448040886  Z M 14.7583333333333 10.9965928449744  C 15.5861111111111 11.0817717206133  16 11.1697898921068  16 11.2606473594549  L 16 12.4531516183986  C 16 12.5440090857467  15.5861111111111 12.6320272572402  14.7583333333333 12.717206132879  C 14.6916666666667 12.870528109029  14.6083333333333 13.0181714934696  14.5083333333333 13.160136286201  C 14.7916666666667 13.801817149347  14.9333333333333 14.1936399772856  14.9333333333333 14.335604770017  C 14.9333333333333 14.3583191368541  14.9222222222222 14.3781942078365  14.9 14.3952299829642  C 14.2222222222222 14.7984099943214  13.8777777777778 15  13.8666666666667 15  C 13.8222222222222 15  13.6944444444444 14.8665530948325  13.4833333333333 14.5996592844974  C 13.2722222222222 14.3327654741624  13.1277777777778 14.1396933560477  13.05 14.0204429301533  C 12.9388888888889 14.0318001135718  12.8555555555556 14.0374787052811  12.8 14.0374787052811  C 12.7444444444444 14.0374787052811  12.6611111111111 14.0318001135718  12.55 14.0204429301533  C 12.4722222222222 14.1396933560477  12.3277777777778 14.3327654741624  12.1166666666667 14.5996592844974  C 11.9055555555556 14.8665530948325  11.7777777777778 15  11.7333333333333 15  C 11.7222222222222 15  11.3777777777778 14.7984099943214  10.7 14.3952299829642  C 10.6777777777778 14.3781942078365  10.6666666666667 14.3583191368541  10.6666666666667 14.335604770017  C 10.6666666666667 14.1936399772856  10.8083333333333 13.801817149347  11.0916666666667 13.160136286201  C 10.9916666666667 13.0181714934696  10.9083333333333 12.870528109029  10.8416666666667 12.717206132879  C 10.0138888888889 12.6320272572402  9.6 12.5440090857467  9.6 12.4531516183986  L 9.6 11.2606473594549  C 9.6 11.1697898921068  10.0138888888889 11.0817717206133  10.8416666666667 10.9965928449744  C 10.9138888888889 10.831913685406  10.9972222222222 10.6842703009654  11.0916666666667 10.5536626916525  C 10.8083333333333 9.91198182850653  10.6666666666667 9.52015900056786  10.6666666666667 9.37819420783646  C 10.6666666666667 9.35547984099943  10.6777777777778 9.33560477001704  10.7 9.31856899488927  C 10.7222222222222 9.30721181147075  10.8194444444444 9.25042589437819  10.9916666666667 9.14821124361158  C 11.1638888888889 9.04599659284498  11.3277777777778 8.94946053378762  11.4833333333333 8.85860306643952  C 11.6388888888889 8.76774559909143  11.7222222222222 8.72231686541738  11.7333333333333 8.72231686541738  C 11.7777777777778 8.72231686541738  11.9055555555556 8.85434412265758  12.1166666666667 9.11839863713799  C 12.3277777777778 9.3824531516184  12.4722222222222 9.57410562180579  12.55 9.69335604770017  C 12.6611111111111 9.68199886428166  12.7444444444444 9.6763202725724  12.8 9.6763202725724  C 12.8555555555556 9.6763202725724  12.9388888888889 9.68199886428166  13.05 9.69335604770017  C 13.3333333333333 9.29017603634298  13.5888888888889 8.97217490062464  13.8166666666667 8.73935264054514  L 13.8666666666667 8.72231686541738  C 13.8888888888889 8.72231686541738  14.2333333333333 8.92106757524134  14.9 9.31856899488927  C 14.9222222222222 9.33560477001704  14.9333333333333 9.35547984099943  14.9333333333333 9.37819420783646  C 14.9333333333333 9.52015900056786  14.7916666666667 9.91198182850653  14.5083333333333 10.5536626916525  C 14.6027777777778 10.6842703009654  14.6861111111111 10.831913685406  14.7583333333333 10.9965928449744  Z M 14.7583333333333 2.27427597955707  C 15.5861111111111 2.35945485519591  16 2.44747302668938  16 2.53833049403748  L 16 3.73083475298126  C 16 3.82169222032936  15.5861111111111 3.90971039182283  14.7583333333333 3.99488926746167  C 14.6916666666667 4.14821124361158  14.6083333333333 4.29585462805224  14.5083333333333 4.43781942078365  C 14.7916666666667 5.07950028392959  14.9333333333333 5.47132311186826  14.9333333333333 5.61328790459966  C 14.9333333333333 5.63600227143668  14.9222222222222 5.65587734241908  14.9 5.67291311754685  C 14.2222222222222 6.07609312890403  13.8777777777778 6.27768313458262  13.8666666666667 6.27768313458262  C 13.8222222222222 6.27768313458262  13.6944444444444 6.1442362294151  13.4833333333333 5.87734241908007  C 13.2722222222222 5.61044860874503  13.1277777777778 5.41737649063032  13.05 5.29812606473595  C 12.9388888888889 5.30948324815446  12.8555555555556 5.31516183986371  12.8 5.31516183986371  C 12.7444444444444 5.31516183986371  12.6611111111111 5.30948324815446  12.55 5.29812606473595  C 12.4722222222222 5.41737649063032  12.3277777777778 5.61044860874503  12.1166666666667 5.87734241908007  C 11.9055555555556 6.1442362294151  11.7777777777778 6.27768313458262  11.7333333333333 6.27768313458262  C 11.7222222222222 6.27768313458262  11.3777777777778 6.07609312890403  10.7 5.67291311754685  C 10.6777777777778 5.65587734241908  10.6666666666667 5.63600227143668  10.6666666666667 5.61328790459966  C 10.6666666666667 5.47132311186826  10.8083333333333 5.07950028392959  11.0916666666667 4.43781942078365  C 10.9916666666667 4.29585462805224  10.9083333333333 4.14821124361158  10.8416666666667 3.99488926746167  C 10.0138888888889 3.90971039182283  9.6 3.82169222032936  9.6 3.73083475298126  L 9.6 2.53833049403748  C 9.6 2.44747302668938  10.0138888888889 2.35945485519591  10.8416666666667 2.27427597955707  C 10.9138888888889 2.10959681998864  10.9972222222222 1.96195343554798  11.0916666666667 1.83134582623509  C 10.8083333333333 1.18966496308915  10.6666666666667 0.797842135150481  10.6666666666667 0.655877342419081  C 10.6666666666667 0.633162975582055  10.6777777777778 0.61328790459966  10.7 0.596252129471891  C 10.7222222222222 0.584894946053377  10.8194444444444 0.528109028960818  10.9916666666667 0.425894378194208  C 11.1638888888889 0.323679727427598  11.3277777777778 0.227143668370242  11.4833333333333 0.136286201022147  C 11.6388888888889 0.0454287336740478  11.7222222222222 0  11.7333333333333 0  C 11.7777777777778 0  11.9055555555556 0.132027257240204  12.1166666666667 0.396081771720613  C 12.3277777777778 0.660136286201022  12.4722222222222 0.851788756388416  12.55 0.971039182282795  C 12.6611111111111 0.95968199886428  12.7444444444444 0.954003407155026  12.8 0.954003407155026  C 12.8555555555556 0.954003407155026  12.9388888888889 0.95968199886428  13.05 0.971039182282795  C 13.3333333333333 0.567859170925609  13.5888888888889 0.249858035207268  13.8166666666667 0.0170357751277683  L 13.8666666666667 0  C 13.8888888888889 0  14.2333333333333 0.198750709823963  14.9 0.596252129471891  C 14.9222222222222 0.61328790459966  14.9333333333333 0.633162975582055  14.9333333333333 0.655877342419081  C 14.9333333333333 0.797842135150481  14.7916666666667 1.18966496308915  14.5083333333333 1.83134582623509  C 14.6027777777778 1.96195343554798  14.6861111111111 2.10959681998864  14.7583333333333 2.27427597955707  Z " fill-rule="nonzero" fill="#555555" stroke="none" transform="matrix(1 0 0 1 21 542 )" />
  </g>
</svg>